<svg id="Capa_1" data-name="Capa 1" xmlns="http://www.w3.org/2000/svg" viewBox="0 0 378.1 378"><defs><style>.cls-1{fill:#888;}</style></defs><path class="cls-1" d="M299.54,0h-221A78.54,78.54,0,0,0,.05,78.51v221A78.54,78.54,0,0,0,78.56,378h221a78.54,78.54,0,0,0,78.51-78.51v-221A78.54,78.54,0,0,0,299.54,0Zm49.4,300.76a48.16,48.16,0,0,1-48.13,48.13H77.29a48.16,48.16,0,0,1-48.13-48.13V77.24A48.16,48.16,0,0,1,77.29,29.11H300.81a48.16,48.16,0,0,1,48.13,48.13Z"/><path class="cls-1" d="M82.81,143.42a9.31,9.31,0,0,0-6.69-2.23H72.93a9.47,9.47,0,0,0-6.69,2.23,7.42,7.42,0,0,0-2.55,6,8.12,8.12,0,0,0,2.55,6.38,9.43,9.43,0,0,0,6.69,2.44h3.19a9.62,9.62,0,0,0,6.69-2.44,8,8,0,0,0,2.55-6.16A7.68,7.68,0,0,0,82.81,143.42Z"/><polygon class="cls-1" points="68.57 172 65.6 217.9 65.6 236.81 83.55 236.81 83.55 217.9 80.58 172 68.57 172"/><polygon class="cls-1" points="161.64 179.65 136.14 179.65 136.14 141.51 119.78 141.51 119.78 236.59 136.14 236.59 136.14 194.84 161.64 194.84 161.64 236.59 178 236.59 178 141.51 161.64 141.51 161.64 179.65"/><path class="cls-1" d="M228.46,171.79c-.85,2.87-1.59,5.63-2.23,8.18s-.95,4.36-1.16,5.52A42.25,42.25,0,0,0,223.9,180c-.64-2.34-1.38-5-2.45-8.18l-9.35-30.28H192.87V236.6l15.52.31V207.27c0-4.67,0-9.56-.43-14.76-.42-5.42-.64-10.31-1.06-15.52-.32-5-.64-9.88-1.17-14.34s-.85-8.5-1.38-11.68l13.07,44.72H232l12.75-44.83c-.32,3.4-.64,7.44-1.17,12s-.74,9.34-1.17,14.55c-.32,5-.42,10.09-.85,15.3-.21,5.2-.42,10-.42,14.34V236.6h15.3V141.51H237.18Z"/><polygon class="cls-1" points="309.21 206 312.18 159.25 312.18 141.41 294.44 141.41 294.44 159.25 297.41 206 309.21 206"/><path class="cls-1" d="M305.49,219.6h-3.93A9.37,9.37,0,0,0,295,222a8.32,8.32,0,0,0-2.44,6.16,7.56,7.56,0,0,0,2.44,6.16,9.33,9.33,0,0,0,6.59,2.45h3.82a9.42,9.42,0,0,0,6.7-2.45,9,9,0,0,0,0-12.32A9,9,0,0,0,305.49,219.6Z"/></svg>