<?xml version="1.0" encoding="utf-8"?>
<!-- Generator: Adobe Illustrator 24.1.0, SVG Export Plug-In . SVG Version: 6.00 Build 0)  -->
<svg version="1.1" id="Capa_1" xmlns="http://www.w3.org/2000/svg" xmlns:xlink="http://www.w3.org/1999/xlink" x="0px" y="0px"
	 viewBox="0 0 680.3 680.3" style="enable-background:new 0 0 680.3 680.3;" xml:space="preserve">
<style type="text/css">
	.st0{fill:none;stroke:#000000;stroke-width:12;stroke-linecap:round;stroke-linejoin:round;stroke-miterlimit:10;}
</style>
<g>
	<g>
		<path d="M148.5,440.8c1.4-1.4,2.6-3,4.1-4.3c16.4-15.1,32.9-30.2,49.3-45.4c2.2-2,4.1-4.3,6.6-6.9c-12.5-3.4-18.8-13.7-27.1-21.7
			c-5-4.8-9.7-10-14.6-15c-8.7-8.9-11.7-19.4-7.8-31.3c3.8-11.7,12.3-18.4,24.4-20.6c0.5-0.1,0.9-0.2,1.4-0.3
			c-13.1-21.9,1.4-46.3,24.4-47.6c-4.4-12.8-2.9-24.5,7.1-34c10-9.5,21.9-10.4,34.6-5.3c1-9.4,4.9-16.9,12.4-22.3
			c7.6-5.5,16.1-7,25.2-4.9c9,2.1,14.8,8.7,21.4,15.8c6.4-6.6,12.4-12.8,18.5-19.1c1.6-1.6,3.1-3.2,4.8-4.7
			c6.8-6.1,14.5-7.5,22.9-3.8c7.5,3.3,14.9,7,22.4,10.4c1.1,0.5,2.9,0.5,3.9-0.1c19.7-12.3,43.7-1.3,47.1,21.6
			c0.1,0.4,0.2,0.7,0.4,1.4c12.5-5.2,24.3-4.2,34.3,5.3c10.1,9.5,11.6,21.2,7.1,34c23.9,1.9,37.1,26.2,24.5,47.6
			c1.6,0.4,3.2,0.7,4.7,1.1c22.5,5.9,30.1,33.1,13.9,50.3c-11.1,11.8-22.5,23.4-33.8,35c-1.9,2-4.2,3.5-6.3,5.3
			c-0.1,0.6-0.2,1.3-0.3,1.9c1.2,0.7,2.7,1.1,3.6,2.1c17.1,17.3,34.2,34.6,51.3,51.9c0.9,0.9,1.8,1.8,2.4,2.9c1.3,2.4,0.9,4.6-1,6.5
			c-1.9,1.9-4.2,2.3-6.5,0.9c-1.3-0.8-2.3-1.9-3.4-2.9c-18.2-17.4-36.4-34.9-54.5-52.4c0.4-0.5,0.7-1.1,1.1-1.6
			c-0.8,0.7-1.6,1.4-2.3,2.1c-6.8,7-13.4,14.1-20.4,20.8c-1.4,1.4-4.2,2.1-6.2,1.8c-1.4-0.2-3.5-2.6-3.6-4.1c-0.1-1.9,1-4.4,2.4-5.8
			c16.8-17.6,33.7-35,50.6-52.5c6.5-6.7,13.1-13.4,19.4-20.2c5.2-5.6,6.4-12.3,3.7-19.5c-2.7-7.2-8.2-11.2-15.7-12.1
			c-5.8-0.7-10.8,1.3-15,5.2c-2.4,2.2-5,2.9-7.8,0.9c-2.9-2.1-3-5.8-0.3-8.8c3.8-4.1,7.8-8.1,11.7-12.1c8-8.4,8-20.2,0-27.7
			c-7.8-7.3-19.3-6.7-27.4,1.6c-2.3,2.3-4.5,4.7-6.7,7c-3.5,3.6-6.8,4.1-9.4,1.5c-2.5-2.5-2.1-5.7,1.1-9.2
			c5.6-5.9,11.4-11.5,16.7-17.6c5.4-6.1,6.1-13.3,2.5-20.6c-3.6-7.3-9.9-10.7-18-10.4c-4.9,0.2-9.1,2.3-12.6,5.8
			c-4.8,4.9-9.5,9.9-14.3,14.8c-3,3.1-6.4,3.5-8.9,1.1c-2.6-2.5-2.4-5.5,0.7-8.8c2-2.2,4.2-4.3,6.2-6.5c6.8-7.7,6.4-19.3-1-26.3
			c-7.7-7.2-19.2-7-26.5,0.6c-13.5,14-27,28-40.5,42c7.7,11.3,9,23,1.7,34.8c-6.9,11.2-17.6,15.3-30.5,14
			c-3,25.9-10.9,33.5-35.9,34.2c0.5,9.6-2,18.2-9,25c-7.1,6.9-15.7,9.4-25.9,8.4c0,1.5,0,2.8,0,4.1c0.1,13.7-8.2,25.1-21.2,29.5
			c-1.7,0.6-3.3,1.9-4.6,3.3c-4.4,4.7-8.3,10-13,14.4c-15.7,14.8-31.7,29.3-47.6,43.9c-4.6,4.3-7.2,4.1-11-0.7
			C148.5,443.3,148.5,442.1,148.5,440.8z M301.6,204.8c-2.5-2.6-4.5-4.8-6.6-6.9c-8-8-19.4-8.4-27.1-1.1c-7.8,7.4-7.8,19.1,0,27.4
			c3.3,3.5,6.8,6.9,10.1,10.5c2.7,2.9,2.6,6.4-0.1,8.6c-2.6,2.1-5.4,1.8-8.3-1.1c-6.3-6.4-12.4-13-18.7-19.3
			c-7.8-7.9-19.5-8.3-27.1-0.9c-7.7,7.4-7.8,19.1,0,27.1c16.1,16.7,32.2,33.4,48.4,50c8,8.2,19.7,8.6,27.4,1.1
			c7.7-7.5,7.6-19.2-0.3-27.4c-3.4-3.6-6.9-7.2-10.4-10.8c-2.3-2.4-2.7-5-0.7-7.7c2.2-2.9,5.8-2.9,8.8,0.1c4.1,4,7.9,8.4,12.1,12.3
			c7.1,6.6,17.7,6.6,24.9,0.4c7.1-6.1,8.6-16.6,3.7-24.4c-1.3-2.1-2.6-2.9-5.4-2.1c-13.3,3.6-25.2,0.7-35.2-8.9
			c-6.5-6.2-6.6-15.6-0.4-22.1C298.1,207.9,299.7,206.5,301.6,204.8z M252.4,339.1c6.2-0.3,12.1-3.8,15.4-11.1
			c3.3-7.4,2.2-14.6-3.3-20.5c-13.6-14.4-27.4-28.7-41.3-42.8c-7.5-7.6-19.2-7.4-26.6-0.1c-7.2,7.1-7.6,18.7-0.4,26.3
			c13.5,14.3,27.3,28.4,41,42.5C240.8,337.3,245.3,339.2,252.4,339.1z M215.9,373.7c7.9-0.3,13.9-3.9,17.1-11.2
			c3.3-7.4,2.2-14.6-3.4-20.5c-9.5-10.1-19.1-20.1-28.9-29.9c-7.4-7.4-18.9-7.4-26.3-0.3c-7.5,7.2-7.9,18.8-0.6,26.6
			c9.4,10,19,19.8,28.6,29.6C206,371.9,210.6,373.7,215.9,373.7z M372,189.5c-6.7-3.1-13.2-6.2-19.7-9.3c-5.1-2.4-8.5-1.8-12.5,2.2
			c-11.4,11.2-22.7,22.4-34,33.6c-3.5,3.4-3.3,5.4,0.3,8.7c9.5,8.4,24.2,8,33.5-1.3c10.6-10.7,21-21.7,31.4-32.5
			C371.4,190.6,371.6,190.1,372,189.5z"/>
		<path d="M417.2,550.9c-14.4-15.1-28.9-30.2-43.3-45.3c-9.6-10-19.1-20-28.6-30c-0.8-0.9-1.4-2-2.5-3.6c-2.1,2.4-3.5,4-4.9,5.5
			c-21.3,22.7-42.7,45.4-64,68c-1.8,1.9-3.7,3.6-5.6,5.4c-1.2,0-2.5,0-3.7,0c-4.8-3.8-5-6.5-0.7-11c22.1-23.5,44.2-47.1,66.4-70.6
			c16.9-18,37.2-30.5,60.9-37.8c8-2.5,15.7-6.1,23.5-9.5c4.4-1.9,7.4-1.7,9.1,1.4c1.7,3.2,0.5,6.7-4,8.5
			c-10.7,4.5-21.4,8.7-32.2,12.7c-13.4,5-29.3,13.9-36.2,20.9c6.2,6.5,12.3,13,18.5,19.5c17.5,18.3,34.9,36.6,52.4,55
			c4.3,4.5,3.9,7.4-1.1,10.9C419.7,550.9,418.5,550.9,417.2,550.9z"/>
	</g>
	<path class="st0" d="M45.4,167.6"/>
	<path class="st0" d="M45.4,167.6c-13.6,33.1-16.6,71-6,107.3c10.2,34.9,28.5,68.2,59.3,108c27,34.9,59.9,70,103.7,110.5
		c40.2,37.3,85.4,75.1,138.1,115.6c7-5.6,13.9-11.1,20.8-16.7c15.1-12.1,30.8-24.6,45.9-37.1c45.8-38.1,105.1-89.6,156.8-150.6
		c24.4-28.8,51.6-63.9,68.9-106.6c25.4-62.8,17.6-120.5-22.9-171.6c-38.3-48.3-94.5-65.8-154.2-47.9c-36.7,11-69,32.2-95.8,63
		c-6.3,7.3-13,11-19.7,11c0,0,0,0,0,0c-6.8,0-13.4-3.7-19.8-11.1c-19.9-22.9-43.2-40.6-69.1-52.7c-24.8-11.5-48.3-17.3-70.9-17.3
		c-15.4,0-30.3,2.7-45,8c-21.9,7.9-41.1,20.8-56.7,37.1"/>
</g>
</svg>
