<?xml version="1.0" encoding="utf-8"?>
<!-- Generator: Adobe Illustrator 24.1.0, SVG Export Plug-In . SVG Version: 6.00 Build 0)  -->
<svg version="1.1" id="Capa_1" xmlns="http://www.w3.org/2000/svg" xmlns:xlink="http://www.w3.org/1999/xlink" x="0px" y="0px"
	 viewBox="0 0 512 512" style="enable-background:new 0 0 512 512;" xml:space="preserve">
<style type="text/css">
	.st0{fill:#FFFFFF;}
</style>
<path class="st0" d="M256.1,137c-65.8,0-118.9,53.1-118.9,118.9s53.1,118.9,118.9,118.9S375,321.7,375,255.9S321.9,137,256.1,137z
	 M256.1,333.2c-42.5,0-77.3-34.7-77.3-77.3s34.7-77.3,77.3-77.3s77.3,34.7,77.3,77.3S298.6,333.2,256.1,333.2L256.1,333.2z
	 M407.6,132.1c0,15.4-12.4,27.7-27.7,27.7c-15.4,0-27.7-12.4-27.7-27.7s12.4-27.7,27.7-27.7C395.2,104.4,407.6,116.8,407.6,132.1z
	 M486.4,160.3c-1.8-37.2-10.2-70.1-37.5-97.2c-27.1-27.1-60-35.6-97.2-37.5c-38.3-2.2-153.1-2.2-191.4,0
	c-37.1,1.8-70,10.2-97.2,37.4s-35.6,60-37.5,97.2c-2.2,38.3-2.2,153.1,0,191.4c1.8,37.2,10.2,70.1,37.5,97.2
	c27.2,27.1,60,35.6,97.2,37.5c38.3,2.2,153.1,2.2,191.4,0c37.2-1.8,70.1-10.2,97.2-37.5c27.1-27.1,35.6-60,37.5-97.2
	C488.5,313.2,488.5,198.6,486.4,160.3L486.4,160.3z M436.9,392.6c-8.1,20.3-23.7,35.9-44.1,44.1c-30.5,12.1-103,9.3-136.7,9.3
	s-106.3,2.7-136.7-9.3c-20.3-8.1-35.9-23.7-44.1-44.1c-12.1-30.5-9.3-103-9.3-136.7s-2.7-106.3,9.3-136.7
	c8.1-20.3,23.7-35.9,44.1-44.1c30.5-12.1,103-9.3,136.7-9.3s106.3-2.7,136.7,9.3c20.3,8.1,35.9,23.7,44.1,44.1
	c12.1,30.5,9.3,103,9.3,136.7S449,362.2,436.9,392.6z"/>
</svg>
