<?xml version="1.0" encoding="utf-8"?>
<!-- Generator: Adobe Illustrator 24.1.0, SVG Export Plug-In . SVG Version: 6.00 Build 0)  -->
<svg version="1.1" id="Capa_1" xmlns="http://www.w3.org/2000/svg" xmlns:xlink="http://www.w3.org/1999/xlink" x="0px" y="0px"
	 viewBox="0 0 2151 2500" style="enable-background:new 0 0 2151 2500;" xml:space="preserve">
<style type="text/css">
	.st0{fill:#FFFFFF;}
</style>
<path class="st0" d="M1911.9,1457.6c74.1,172.6,80.7,453.6-143.7,678c-171.6,171.4-379.7,248.6-675.4,250.7h-1.2
	c-332.4-2.4-587.8-114.1-759.7-332.4c-152.7-194.1-231.5-464.5-234.1-803.3v-1.4c2.6-338.8,81.4-609.1,234.1-803.3
	c171.9-218.3,427.3-330,759.7-332.4h1.2c333.1,2.4,591.6,113.6,768.2,331.2c87.4,107.2,151.3,236.5,192,386.6l-191,51.1
	c-33.6-122.2-84.5-226.6-152.2-309.9c-137.8-169.5-345.6-256.4-617.4-258.5c-270.1,1.9-474.2,88.5-607,257.3
	C361,729.7,296.6,957.9,294.3,1250c2.4,292.1,66.8,520.3,191,678.5c132.8,168.8,336.9,255.2,607,257.3
	c243.4-1.9,404.3-59.7,538.3-193.7c152.9-152.7,150.1-340.2,101.1-454.1c-28.6-67.2-80.7-123.1-151-165.5
	c-17,127.6-55.9,228.9-117.2,307c-80.7,102.7-196.3,159.1-343.7,167.1c-111.7,6.2-219.2-20.8-302.6-75.8
	c-98.7-65.3-156.5-165-162.6-280.8c-12.1-228.7,169-393,451-409.3c100.1-5.7,193.9-1.2,280.3,13.5c-11.4-70.3-34.6-125.9-69.4-166.2
	c-47.6-55.4-121.4-83.8-219-84.5h-2.8c-78.4,0-184.7,22-252.6,125L679,856.8c90.9-137.8,238.4-213.5,415.7-213.5h4
	c296.6,1.9,473.2,187,490.8,510.2c10.1,4.4,20,8.9,29.8,13.5C1757.5,1233.4,1858.9,1333.8,1911.9,1457.6z M1390.8,1300.2
	c-62.7-13.7-131.9-21.1-205.5-21.1c-22.6,0-45.5,0.7-68.7,2.1c-203.1,11.6-270.6,110.1-265.9,198.1
	c6.4,118.6,134.7,174.2,258.3,167.1C1230.1,1639.9,1367.4,1592.6,1390.8,1300.2z"/>
</svg>
