<?xml version="1.0" encoding="utf-8"?>
<!-- Generator: Adobe Illustrator 24.1.0, SVG Export Plug-In . SVG Version: 6.00 Build 0)  -->
<svg version="1.1" id="Capa_1" xmlns="http://www.w3.org/2000/svg" xmlns:xlink="http://www.w3.org/1999/xlink" x="0px" y="0px"
	 viewBox="0 0 512 512" style="enable-background:new 0 0 512 512;" xml:space="preserve">
<style type="text/css">
	.st0{fill:#FFFFFF;}
</style>
<path class="st0" d="M466.9,212.6c-41.4,0.1-81.9-12.8-115.6-36.9V344c0,84.6-68.5,153-153.1,153s-153-68.6-153-153.1
	s68.6-153.1,153.1-153c7,0,14,0.5,21,1.4V277c-37-11.7-76.5,8.9-88.1,45.9s8.9,76.5,45.9,88.1c37,11.7,76.5-8.9,88.1-45.9
	c2.2-6.8,3.2-13.9,3.2-21.1V15h82.9c-0.1,7,0.6,14,1.8,20.9l0,0c5.8,31.1,24.2,58.4,50.8,75.5c18.7,12.3,40.7,18.9,63.1,18.9
	L466.9,212.6L466.9,212.6z"/>
</svg>
