<?xml version="1.0" encoding="utf-8"?>
<!-- Generator: Adobe Illustrator 24.1.0, SVG Export Plug-In . SVG Version: 6.00 Build 0)  -->
<svg version="1.1" id="Capa_1" xmlns="http://www.w3.org/2000/svg" xmlns:xlink="http://www.w3.org/1999/xlink" x="0px" y="0px"
	 viewBox="0 0 512 512" style="enable-background:new 0 0 512 512;" xml:space="preserve">
<style type="text/css">
	.st0{fill:#FFFFFF;}
</style>
<path class="st0" d="M490.4,137.8c-5.6-21.2-22.2-37.9-43.3-43.5C409,84,256,84,256,84S103,84,64.8,94.3
	c-21.1,5.6-37.6,22.3-43.3,43.5c-10.2,38.4-10.2,118.5-10.2,118.5s0,80.1,10.2,118.5c5.6,21.1,22.2,37.2,43.3,42.8
	C103,428,256,428,256,428s153,0,191.2-10.3c21.1-5.6,37.6-21.7,43.3-42.8c10.2-38.4,10.2-118.5,10.2-118.5S500.7,176.2,490.4,137.8z
	 M205.9,329.1V183.6l127.8,72.7L205.9,329.1L205.9,329.1z"/>
</svg>
