<svg width="473" height="159" viewBox="0 0 473 159" fill="none" xmlns="http://www.w3.org/2000/svg">
<g clip-path="url(#clip0_274_24)">
<rect width="473" height="159" rx="32" fill="#D9D9D9"/>
<path d="M182.441 51.6357C178.463 51.6357 175.257 51.2119 172.823 50.3643C170.39 49.5029 168.537 48.3271 167.266 46.8369C165.994 45.333 165.14 43.6035 164.702 41.6484H177.807C178.777 43.043 180.322 43.7402 182.441 43.7402C184.561 43.7402 186.105 43.043 187.076 41.6484C187.158 41.5117 187.199 41.3887 187.199 41.2793C187.199 40.9102 186.707 40.6367 185.723 40.459C184.752 40.2676 183.296 40.124 181.354 40.0283C178.907 39.9189 176.337 39.6592 173.644 39.249C167.642 38.3193 164.641 35.9062 164.641 32.0098C164.641 31.6816 164.661 31.333 164.702 30.9639C165.14 29.0088 165.994 27.2861 167.266 25.7959C168.537 24.292 170.39 23.1162 172.823 22.2686C175.257 21.4072 178.463 20.9766 182.441 20.9766C186.42 20.9766 189.626 21.4072 192.06 22.2686C194.493 23.1162 196.346 24.292 197.617 25.7959C198.889 27.2861 199.743 29.0088 200.181 30.9639H187.076C186.105 29.5693 184.561 28.8721 182.441 28.8721C180.322 28.8721 178.777 29.5693 177.807 30.9639C177.738 31.0732 177.704 31.1758 177.704 31.2715C177.704 31.5996 178.169 31.8457 179.099 32.0098C180.042 32.1602 181.423 32.29 183.241 32.3994C185.073 32.5088 187.021 32.6865 189.086 32.9326C191.15 33.1787 193.078 33.6094 194.869 34.2246C196.674 34.8262 198.082 35.7217 199.094 36.9111C199.887 37.8271 200.283 38.9893 200.283 40.3975C200.283 40.7939 200.249 41.2109 200.181 41.6484C199.743 43.6035 198.889 45.333 197.617 46.8369C196.346 48.3271 194.493 49.5029 192.06 50.3643C189.626 51.2119 186.42 51.6357 182.441 51.6357ZM224.175 51.6357C216.901 51.6357 211.549 50.1387 208.117 47.1445C205.082 44.4922 203.564 40.876 203.564 36.2959C203.564 31.7295 205.082 28.1201 208.117 25.4678C211.549 22.4736 216.901 20.9766 224.175 20.9766C231.448 20.9766 236.801 22.4736 240.232 25.4678C243.268 28.1201 244.785 31.7295 244.785 36.2959C244.785 40.876 243.268 44.4922 240.232 47.1445C236.801 50.1387 231.448 51.6357 224.175 51.6357ZM224.175 43.7402C227.155 43.7402 229.343 42.8857 230.737 41.1768C231.858 39.7959 232.419 38.1689 232.419 36.2959C232.419 34.4229 231.858 32.8027 230.737 31.4355C229.343 29.7129 227.155 28.8516 224.175 28.8516C221.194 28.8516 219 29.7129 217.592 31.4355C216.471 32.8027 215.91 34.4229 215.91 36.2959C215.91 38.1689 216.471 39.7959 217.592 41.1768C219 42.8857 221.194 43.7402 224.175 43.7402ZM269.805 51H257.459V37.0547L241.401 21.5713H255.08L263.632 30.3691L272.163 21.5713H285.842L269.805 37.0547V51ZM222.227 93H209.881V74.2354L198.848 93H189.64L178.627 74.2354V93H166.281V63.5713H180.944L194.254 84.5918L207.543 63.5713H222.227V93ZM274.932 93H262.422L259.653 88.1807H241.094L238.325 93H225.815L244.642 63.5918H256.105L274.932 93ZM255.49 80.9004L250.384 71.9795L245.257 80.9004H255.49ZM318.716 93H307.047C306.514 92.2617 306.138 91.3184 305.919 90.1699C305.728 89.2812 305.44 88.4131 305.058 87.5654C304.675 86.7041 304.012 85.9932 303.068 85.4326C302.139 84.8584 300.751 84.5508 298.905 84.5098H290.887V93H278.541V63.5713H298.618C303.417 63.5713 307.286 63.9336 310.226 64.6582C313.179 65.3691 315.332 66.4971 316.686 68.042C318.039 69.5732 318.716 71.5762 318.716 74.0508C318.716 76.1152 318.244 77.8516 317.301 79.2598C316.371 80.668 314.895 81.7822 312.871 82.6025C314.826 83.4092 316.091 84.3799 316.665 85.5146C317.253 86.6357 317.615 87.873 317.752 89.2266C317.889 90.4297 318.21 91.6875 318.716 93ZM290.887 77.25L297.941 77.2295C299.91 77.2295 301.462 77.1406 302.597 76.9629C303.731 76.7852 304.565 76.5459 305.099 76.2451C305.646 75.9307 305.994 75.5889 306.145 75.2197C306.295 74.8369 306.37 74.4473 306.37 74.0508C306.37 73.6543 306.295 73.2646 306.145 72.8818C305.994 72.499 305.646 72.1572 305.099 71.8564C304.565 71.542 303.731 71.2959 302.597 71.1182C301.462 70.9404 299.91 70.8516 297.941 70.8516H290.887V77.25ZM342.628 93.6357C335.354 93.6357 330.002 92.1387 326.57 89.1445C323.535 86.5059 322.018 82.8965 322.018 78.3164C322.018 73.7363 323.535 70.1201 326.57 67.4678C330.002 64.4873 335.354 62.9971 342.628 62.9971C346.894 62.9971 350.421 63.4893 353.21 64.4736C355.999 65.4443 358.166 66.7773 359.711 68.4727C361.256 70.168 362.281 72.1094 362.787 74.2969H349.806C348.507 72.0137 346.114 70.8721 342.628 70.8721C339.647 70.8721 337.453 71.7334 336.045 73.4561C334.924 74.8232 334.363 76.4434 334.363 78.3164C334.363 80.1895 334.924 81.8096 336.045 83.1768C337.453 84.8994 339.647 85.7607 342.628 85.7607C346.114 85.7607 348.507 84.6123 349.806 82.3154H362.787C362.281 84.5166 361.256 86.4648 359.711 88.1602C358.166 89.8555 355.999 91.1953 353.21 92.1797C350.421 93.1504 346.894 93.6357 342.628 93.6357ZM385.12 93.6357C377.942 93.6357 372.891 92.1455 369.965 89.165C367.504 86.6631 366.273 83.0469 366.273 78.3164V63.5918H378.619V78.3164C378.619 80.3672 378.968 81.9873 379.665 83.1768C380.663 84.8857 382.481 85.7402 385.12 85.7402C387.786 85.7402 389.611 84.8857 390.596 83.1768C391.293 81.9463 391.642 80.3262 391.642 78.3164V63.5918H403.987V78.4805C403.987 83.1016 402.764 86.6631 400.316 89.165C397.377 92.1455 392.312 93.6357 385.12 93.6357ZM425.295 93.6357C421.316 93.6357 418.11 93.2119 415.677 92.3643C413.243 91.5029 411.391 90.3271 410.119 88.8369C408.848 87.333 407.993 85.6035 407.556 83.6484H420.66C421.631 85.043 423.176 85.7402 425.295 85.7402C427.414 85.7402 428.959 85.043 429.93 83.6484C430.012 83.5117 430.053 83.3887 430.053 83.2793C430.053 82.9102 429.561 82.6367 428.576 82.459C427.605 82.2676 426.149 82.124 424.208 82.0283C421.761 81.9189 419.19 81.6592 416.497 81.249C410.495 80.3193 407.494 77.9062 407.494 74.0098C407.494 73.6816 407.515 73.333 407.556 72.9639C407.993 71.0088 408.848 69.2861 410.119 67.7959C411.391 66.292 413.243 65.1162 415.677 64.2686C418.11 63.4072 421.316 62.9766 425.295 62.9766C429.273 62.9766 432.479 63.4072 434.913 64.2686C437.347 65.1162 439.199 66.292 440.471 67.7959C441.742 69.2861 442.597 71.0088 443.034 72.9639H429.93C428.959 71.5693 427.414 70.8721 425.295 70.8721C423.176 70.8721 421.631 71.5693 420.66 72.9639C420.592 73.0732 420.558 73.1758 420.558 73.2715C420.558 73.5996 421.022 73.8457 421.952 74.0098C422.896 74.1602 424.276 74.29 426.095 74.3994C427.927 74.5088 429.875 74.6865 431.939 74.9326C434.004 75.1787 435.932 75.6094 437.723 76.2246C439.527 76.8262 440.936 77.7217 441.947 78.9111C442.74 79.8271 443.137 80.9893 443.137 82.3975C443.137 82.7939 443.103 83.2109 443.034 83.6484C442.597 85.6035 441.742 87.333 440.471 88.8369C439.199 90.3271 437.347 91.5029 434.913 92.3643C432.479 93.2119 429.273 93.6357 425.295 93.6357ZM169.275 135H163.615V129.34H169.275V135ZM192.859 135H173.172V105.571H192.859C200.912 105.571 206.702 106.699 210.229 108.955C213.073 110.773 214.693 113.248 215.09 116.379C215.268 117.732 215.356 119.038 215.356 120.296C215.356 121.54 215.268 122.846 215.09 124.213C214.926 125.566 214.475 126.886 213.736 128.171C212.998 129.442 211.822 130.591 210.209 131.616C208.609 132.642 206.408 133.462 203.605 134.077C200.816 134.692 197.234 135 192.859 135ZM191.69 127.72C197.966 127.72 201.514 126.134 202.334 122.962C202.553 122.073 202.662 121.185 202.662 120.296C202.662 119.394 202.546 118.505 202.313 117.63C202.095 116.741 201.616 115.941 200.878 115.23C200.153 114.506 199.06 113.932 197.597 113.508C196.134 113.07 194.165 112.852 191.69 112.852H185.518V127.72H191.69ZM255.736 135H220.299V105.571H254.116V112.852H232.645V117.466H250.794V123.126H232.645V127.72H255.736V135ZM285.637 135H274.173L257.685 105.592H270.194L279.915 126.612L289.615 105.592H302.125L285.637 135Z" fill="#111111"/>
<path d="M130.421 15.2837C130.226 15.2837 130.036 15.2837 129.84 15.2837H38.1645C37.9691 15.2837 37.7738 15.2837 37.5784 15.2837C32.3542 15.2851 27.3444 17.3481 23.6503 21.0191C19.9563 24.69 17.8803 29.6685 17.8789 34.8601V124.14C17.8803 129.331 19.9565 134.309 23.6507 137.979C27.3449 141.649 32.3547 143.711 37.5784 143.711H130.421C135.645 143.711 140.655 141.649 144.349 137.979C148.043 134.309 150.119 129.331 150.121 124.14V34.8601C150.121 29.6681 148.045 24.6888 144.351 21.0175C140.656 17.3462 135.646 15.2837 130.421 15.2837Z" fill="#111111"/>
<path d="M101.833 58.0713L84.0005 75.7925L66.1678 58.0713L48.3297 40.3501L30.4971 58.0713L48.3297 75.7925L66.1678 93.5191L84.0005 111.24L101.833 93.5191L119.666 75.7925L101.833 58.0713Z" fill="white"/>
<path d="M118.596 118.65V93.5889V80.8184L93.3721 106.354V118.65H118.596Z" fill="white"/>
<path d="M49.7021 118.65V93.5889V80.8184L74.9208 106.354V118.65H49.7021Z" fill="white"/>
</g>
<defs>
<clipPath id="clip0_274_24">
<path d="M0 0H473V159H0V0Z" fill="white"/>
</clipPath>
</defs>
</svg>
