<?xml version="1.0" encoding="utf-8"?>
<!-- Generator: Adobe Illustrator 24.1.0, SVG Export Plug-In . SVG Version: 6.00 Build 0)  -->
<svg version="1.1" id="Capa_1" xmlns="http://www.w3.org/2000/svg" xmlns:xlink="http://www.w3.org/1999/xlink" x="0px" y="0px"
	 viewBox="0 0 378.1 378" style="enable-background:new 0 0 378.1 378;" xml:space="preserve">
<style type="text/css">
	.st0{fill:#0A0000;}
	.st1{fill:#FFFFFF;}
	.st2{fill:#2A2A2A;}
	.st3{fill:#D7D7D7;}
	.st4{fill:url(#SVGID_1_);}
	.st5{fill:#888888;}
	.st6{fill:#333333;}
	.st7{clip-path:url(#SVGID_3_);}
	.st8{fill:none;}
	.st9{fill:none;stroke:#FFFFFF;stroke-width:0.45;stroke-miterlimit:10;}
	.st10{clip-path:url(#SVGID_5_);}
</style>
<g>
	<path class="st2" d="M294.4,378H83.7C37.5,378,0,340.5,0,294.3V83.7C0,37.5,37.5,0,83.7,0h210.7c46.2,0,83.7,37.5,83.7,83.7v210.7
		C378.1,340.6,340.6,378,294.4,378z"/>
	<path class="st1" d="M293,366.9H85c-40.8,0-73.9-33.1-73.9-73.9V85c0-40.8,33.1-73.9,73.9-73.9h208c40.8,0,73.9,33.1,73.9,73.9v208
		C366.9,333.8,333.8,366.9,293,366.9z"/>
	<path class="st2" d="M294.2,339.5H83.8c-25,0-45.3-20.3-45.3-45.3V83.8c0-25,20.3-45.3,45.3-45.3h210.4c25,0,45.3,20.3,45.3,45.3
		v210.4C339.5,319.2,319.2,339.5,294.2,339.5z"/>
	<g>
		<path class="st1" d="M79.7,160c-2.6,0-4.7-0.8-6.3-2.3c-1.7-1.5-2.4-3.6-2.4-6s0.8-4.2,2.4-5.6c1.7-1.5,3.7-2.1,6.3-2.1h3
			c2.6,0,4.7,0.6,6.3,2.1c1.7,1.5,2.4,3.4,2.4,5.8c0,2.4-0.8,4.3-2.4,5.8c-1.7,1.5-3.7,2.3-6.3,2.3H79.7z M72.8,234v-17.8l2.8-43.2
			h11.3l2.8,43.2V234H72.8z"/>
		<path class="st1" d="M123.8,233.8v-89.5h15.4v35.9h24v-35.9h15.4v89.5h-15.4v-39.3h-24v39.3L123.8,233.8L123.8,233.8z"/>
		<path class="st1" d="M192.6,233.8v-89.5h18.1l8.8,28.5c1,3,1.7,5.5,2.3,7.7c0.6,2.3,1,4.1,1.1,5.2c0.2-1.1,0.5-2.8,1.1-5.2
			s1.3-5,2.1-7.7l8.2-28.5h18.1v89.5H238V206c0-4.1,0.2-8.6,0.4-13.5c0.4-4.9,0.5-9.7,0.8-14.4c0.4-4.9,0.6-9.4,1.1-13.7
			s0.8-8.1,1.1-11.3l-12,42.2h-13.7l-12.3-42.1c0.5,3,0.8,6.8,1.3,11s0.8,8.8,1.1,13.5c0.4,4.9,0.6,9.5,1,14.6
			c0.4,4.9,0.4,9.5,0.4,13.9v27.9L192.6,233.8L192.6,233.8z"/>
		<path class="st1" d="M294.9,234c-2.6,0-4.5-0.8-6.2-2.3s-2.3-3.4-2.3-5.8c0-2.4,0.8-4.3,2.3-5.8c1.7-1.5,3.6-2.3,6.2-2.3h3.7
			c2.6,0,4.7,0.8,6.2,2.3s2.3,3.4,2.3,5.8c0,2.4-0.8,4.3-2.3,5.8c-1.7,1.5-3.6,2.3-6.3,2.3H294.9z M291,205l-2.8-44v-16.8h16.7V161
			l-2.8,44H291z"/>
	</g>
</g>
</svg>
